<svg xmlns="http://www.w3.org/2000/svg" xmlns:xlink="http://www.w3.org/1999/xlink" viewBox="0 0 767.74 141.44"><defs><style>.cls-1{fill:none;}.cls-2{fill:#fff;}.cls-3{clip-path:url(#clip-path);}.cls-4{fill:#e2001a;}.cls-5{fill:#c5c5c6;}.cls-6{fill:#181716;}</style><clipPath id="clip-path" transform="translate(-37.33 -42.6)"><rect class="cls-1" width="841.89" height="226.77"/></clipPath></defs><title>Element 1</title><g id="Ebene_2" data-name="Ebene 2"><g id="Ebene_1-2" data-name="Ebene 1"><rect class="cls-2" y="0.5" width="282.15" height="140.57"/><g class="cls-3"><path class="cls-4" d="M97.55,143.53a32.44,32.44,0,0,1,9.1-1.22,31.28,31.28,0,0,1,9.09,1.22,31.09,31.09,0,0,1,1.22,9.1,32,32,0,0,1-1.22,9.1,30.72,30.72,0,0,1-9.09,1.21,30.67,30.67,0,0,1-9.1-1.21,32,32,0,0,1-1.22-9.1,30.88,30.88,0,0,1,1.22-9.1" transform="translate(-37.33 -42.6)"/><path class="cls-5" d="M167.65,143.53a32.52,32.52,0,0,1,9.1-1.22,31.39,31.39,0,0,1,9.1,1.22,31.27,31.27,0,0,1,1.21,9.1,32.22,32.22,0,0,1-1.21,9.1,34.82,34.82,0,0,1-18.2,0,32.22,32.22,0,0,1-1.21-9.1,31.05,31.05,0,0,1,1.21-9.1" transform="translate(-37.33 -42.6)"/><path class="cls-6" d="M237.75,143.53a32.44,32.44,0,0,1,9.1-1.22,31.39,31.39,0,0,1,9.1,1.22,31.27,31.27,0,0,1,1.21,9.1,32.64,32.64,0,0,1-1.21,9.1,34.82,34.82,0,0,1-18.2,0,32,32,0,0,1-1.22-9.1,30.88,30.88,0,0,1,1.22-9.1" transform="translate(-37.33 -42.6)"/><path class="cls-6" d="M246.72,74.42a19.92,19.92,0,0,1,19.7,20.07c0,10.83-8.74,20.07-19.7,20.07S227,105.32,227,94.49a19.92,19.92,0,0,1,19.7-20.07m0-10.58A30.66,30.66,0,1,0,277.5,94.49a30.3,30.3,0,0,0-30.78-30.65" transform="translate(-37.33 -42.6)"/><path class="cls-6" d="M194.37,83.4l9.82-5.21a30.66,30.66,0,1,0,0,32.62l-9.85-5.24a19.56,19.56,0,0,1-16.33,9c-11,0-19.71-9.24-19.71-20.07A19.93,19.93,0,0,1,178,74.42a19.55,19.55,0,0,1,16.37,9" transform="translate(-37.33 -42.6)"/><path class="cls-6" d="M91,87.84c1.36-8.24,7.76-14.41,16.38-14.41,8.86,0,14.53,5.79,15.88,14.41Zm-.61,8.37h44V94.49c0-17.11-8.61-30.65-27-30.65-18.59,0-28.07,13.29-28.07,31,0,17,10.71,30.29,28.32,30.29A30,30,0,0,0,133.41,111l-9.47-5.25c-3.92,5.94-8.4,9.59-16.2,9.59-10.59,0-17.24-9.24-17.36-19.09" transform="translate(-37.33 -42.6)"/><rect class="cls-4" x="296.27" width="471.46" height="141.44"/><path class="cls-2" d="M448.13,79.4h6.41l4.26,13.75c.47,1.52.91,3.88.91,3.88h.07s.44-2.36.91-3.88L465,79.4h6.32l-8.51,24.15h-6.15Z" transform="translate(-37.33 -42.6)"/><polygon class="cls-2" points="437.17 36.8 452.3 36.8 452.3 41.87 443.08 41.87 443.08 46.26 450.44 46.26 450.44 51.32 443.08 51.32 443.08 55.88 452.77 55.88 452.77 60.95 437.17 60.95 437.17 36.8"/><path class="cls-2" d="M495,79.4h8.41a12.6,12.6,0,0,1,4.69.57c2.74,1,4.46,3.52,4.46,7A7.37,7.37,0,0,1,509,93.59v.06a13.42,13.42,0,0,1,.91,1.45l4.69,8.45H508l-4.29-8.14H501v8.14H495Zm8.48,10.94a2.76,2.76,0,0,0,3.07-3c0-1.82-.68-2.9-3.65-2.9h-2v5.87Z" transform="translate(-37.33 -42.6)"/><path class="cls-2" d="M518.43,79.4h8.88c4.83,0,8.2,2.16,8.2,6.32a5.91,5.91,0,0,1-2.8,5.13v.07a5.41,5.41,0,0,1,3.78,5.43c0,5.27-4.39,7.2-9.18,7.2h-8.88Zm8.94,9.36a2,2,0,0,0,2.13-2.23,2,2,0,0,0-2.23-2.06h-2.93v4.29Zm.51,9.72A2.4,2.4,0,0,0,530.45,96a2.33,2.33,0,0,0-2.54-2.47h-3.57v5Z" transform="translate(-37.33 -42.6)"/><path class="cls-2" d="M553.14,98.48H545.6l-1.45,5.07h-6.08l8.21-24.15h6.21l8.21,24.15h-6.08ZM549.35,84.9s-.54,2.64-1,4.16L547,93.75h4.76l-1.35-4.69c-.44-1.52-1-4.16-1-4.16Z" transform="translate(-37.33 -42.6)"/><path class="cls-2" d="M563.9,79.4h6l6.68,11.28a42.82,42.82,0,0,1,2,4.12h.07s-.27-2.6-.27-4.12V79.4h5.91v24.15h-5.95L571.63,92.3a44.34,44.34,0,0,1-2-4.12h-.07s.27,2.6.27,4.12v11.25H563.9Z" transform="translate(-37.33 -42.6)"/><path class="cls-2" d="M590.41,79.4H599c7.6,0,12.46,4.42,12.46,12s-4.86,12.13-12.46,12.13h-8.58Zm8.34,19.08c4.09,0,6.59-2.43,6.59-7.06s-2.6-7-6.59-7h-2.43v14Z" transform="translate(-37.33 -42.6)"/><path class="cls-2" d="M624.71,79.4h8.57c7.6,0,12.46,4.42,12.46,12s-4.86,12.13-12.46,12.13h-8.57Zm8.34,19.08c4.08,0,6.58-2.43,6.58-7.06s-2.6-7-6.58-7h-2.43v14Z" transform="translate(-37.33 -42.6)"/><polygon class="cls-2" points="613.11 36.8 628.24 36.8 628.24 41.87 619.02 41.87 619.02 46.26 626.38 46.26 626.38 51.32 619.02 51.32 619.02 55.88 628.71 55.88 628.71 60.95 613.11 60.95 613.11 36.8"/><path class="cls-2" d="M671,79.4h8.41a12.6,12.6,0,0,1,4.69.57c2.74,1,4.46,3.52,4.46,7a7.37,7.37,0,0,1-3.61,6.59v.06a15.86,15.86,0,0,1,.91,1.45l4.69,8.45H684l-4.29-8.14h-2.77v8.14H671Zm8.48,10.94a2.76,2.76,0,0,0,3.07-3c0-1.82-.68-2.9-3.65-2.9h-2v5.87Z" transform="translate(-37.33 -42.6)"/><rect class="cls-2" x="333.99" y="80.09" width="5.91" height="24.14"/><path class="cls-2" d="M383.27,122.69h6L395.94,134a44.34,44.34,0,0,1,2,4.12H398s-.27-2.6-.27-4.12V122.69h5.91v24.14h-5.94L391,135.58a41.93,41.93,0,0,1-2-4.11h-.07s.27,2.59.27,4.11v11.25h-5.91Z" transform="translate(-37.33 -42.6)"/><polygon class="cls-2" points="377.01 85.15 369.69 85.15 369.69 80.09 390.25 80.09 390.25 85.15 382.92 85.15 382.92 104.23 377.01 104.23 377.01 85.15"/><polygon class="cls-2" points="393.59 80.09 408.72 80.09 408.72 85.15 399.5 85.15 399.5 89.54 406.86 89.54 406.86 94.61 399.5 94.61 399.5 99.17 409.19 99.17 409.19 104.23 393.59 104.23 393.59 80.09"/><path class="cls-2" d="M451.46,122.69h8.41a12.42,12.42,0,0,1,4.69.57c2.74,1,4.46,3.51,4.46,7a7.37,7.37,0,0,1-3.61,6.59v.07a15.86,15.86,0,0,1,.91,1.45l4.69,8.44h-6.58l-4.29-8.14h-2.77v8.14h-5.91Zm8.47,10.94a2.77,2.77,0,0,0,3.08-3c0-1.82-.68-2.9-3.65-2.9h-2v5.88Z" transform="translate(-37.33 -42.6)"/><path class="cls-2" d="M474.84,122.69h6L487.51,134a44.34,44.34,0,0,1,2,4.12h.07s-.27-2.6-.27-4.12V122.69h5.91v24.14H489.3l-6.72-11.25a41.93,41.93,0,0,1-2-4.11h-.07s.27,2.59.27,4.11v11.25h-5.91Z" transform="translate(-37.33 -42.6)"/><polygon class="cls-2" points="464.02 80.09 479.15 80.09 479.15 85.15 469.94 85.15 469.94 89.54 477.3 89.54 477.3 94.61 469.94 94.61 469.94 99.17 479.63 99.17 479.63 104.23 464.02 104.23 464.02 80.09"/><polygon class="cls-2" points="489.33 85.15 482 85.15 482 80.09 502.57 80.09 502.57 85.15 495.24 85.15 495.24 104.23 489.33 104.23 489.33 85.15"/><path class="cls-2" d="M542.17,122.69h6.21l3,15.09a13.75,13.75,0,0,1,.31,2.53h.06a13.83,13.83,0,0,1,.41-2.53l3.71-15.09h4.76l3.62,15.09a13.2,13.2,0,0,1,.4,2.53h.07a14.19,14.19,0,0,1,.3-2.53l3.31-15.09h6.12l-6.12,24.14h-6.58l-3-12.19a20.72,20.72,0,0,1-.47-2.84h-.07a20.72,20.72,0,0,1-.47,2.84l-3,12.19H548Z" transform="translate(-37.33 -42.6)"/><rect class="cls-2" x="540.89" y="80.09" width="5.91" height="24.14"/><path class="cls-2" d="M590.17,122.69h8.41a12.45,12.45,0,0,1,4.7.57c2.73,1,4.46,3.51,4.46,7a7.36,7.36,0,0,1-3.62,6.59v.07a13.42,13.42,0,0,1,.91,1.45l4.7,8.44h-6.59l-4.29-8.14h-2.76v8.14h-5.92Zm8.48,10.94a2.77,2.77,0,0,0,3.07-3c0-1.82-.67-2.9-3.64-2.9h-2v5.88Z" transform="translate(-37.33 -42.6)"/><polygon class="cls-2" points="580.92 85.15 573.6 85.15 573.6 80.09 594.16 80.09 594.16 85.15 586.83 85.15 586.83 104.23 580.92 104.23 580.92 85.15"/><path class="cls-2" d="M636.72,139.3s2.73,2.5,5.77,2.5c1.22,0,2.53-.47,2.53-1.93,0-2.87-10.87-2.76-10.87-10.19,0-4.46,3.75-7.4,8.54-7.4,5.2,0,7.77,2.74,7.77,2.74l-2.5,4.82a9.22,9.22,0,0,0-5.33-2.12c-1.22,0-2.57.54-2.57,1.89,0,3,10.87,2.5,10.87,10.13,0,4-3.07,7.5-8.51,7.5a12.45,12.45,0,0,1-8.81-3.45Z" transform="translate(-37.33 -42.6)"/><path class="cls-2" d="M666.42,122.28a12.57,12.57,0,0,1,9.05,3.41l-2.73,4.46a10.12,10.12,0,0,0-6-2.47c-4.62,0-6.82,3.41-6.82,6.89s2.37,7.26,6.82,7.26c3.65,0,6.42-3,6.42-3l3,4.32a13.24,13.24,0,0,1-9.73,4.06c-7.56,0-12.66-5.37-12.66-12.53a12.28,12.28,0,0,1,12.66-12.43" transform="translate(-37.33 -42.6)"/><polygon class="cls-2" points="642.65 80.09 648.57 80.09 648.57 89.74 657.34 89.74 657.34 80.09 663.25 80.09 663.25 104.23 657.34 104.23 657.34 94.78 648.57 94.78 648.57 104.23 642.65 104.23 642.65 80.09"/><path class="cls-2" d="M718.87,141.77h-7.54l-1.45,5.06H703.8L712,122.69h6.21l8.21,24.14h-6.08Zm-3.79-13.58s-.54,2.63-1,4.15l-1.38,4.7h4.76l-1.35-4.7c-.44-1.52-1-4.15-1-4.15Z" transform="translate(-37.33 -42.6)"/><polygon class="cls-2" points="692.3 80.09 707.1 80.09 707.1 85.15 698.22 85.15 698.22 90.22 705.58 90.22 705.58 95.28 698.22 95.28 698.22 104.23 692.3 104.23 692.3 80.09"/><polygon class="cls-2" points="716.78 85.15 709.45 85.15 709.45 80.09 730.02 80.09 730.02 85.15 722.69 85.15 722.69 104.23 716.78 104.23 716.78 85.15"/></g></g></g></svg>
