<svg height="512" viewBox="0 0 512 512" width="512" xmlns="http://www.w3.org/2000/svg" xmlns:xlink="http://www.w3.org/1999/xlink"><linearGradient id="a" gradientUnits="userSpaceOnUse" x1="-11.49" x2="513.014" y1="499.49" y2="-25.014" data-name="New Gradient Swatch 1"><stop offset="0" stop-color="#003f8a"/><stop offset=".518" stop-color="#00d7df"/><stop offset="1" stop-color="#006df0"/></linearGradient><linearGradient id="b" x1="12.51" x2="537.014" xlink:href="#a" y1="523.49" y2="-1.014"/><linearGradient id="c" x1=".51" x2="525.014" xlink:href="#a" y1="511.49" y2="-13.014"/><g><path d="m496 8h-192a8 8 0 0 0 -8 8v144a8 8 0 0 0 8 8h24v40a8 8 0 0 0 13.66 5.66l45.65-45.66h108.69a8 8 0 0 0 8-8v-144a8 8 0 0 0 -8-8zm-8 144h-104a8.008 8.008 0 0 0 -5.66 2.34l-34.34 34.35v-28.69a8 8 0 0 0 -8-8h-24v-128h176z" fill="url(#a)"/><path d="m208 344h-24v-40a8 8 0 0 0 -13.657-5.657l-45.656 45.657h-108.687a8 8 0 0 0 -8 8v144a8 8 0 0 0 8 8h192a8 8 0 0 0 8-8v-144a8 8 0 0 0 -8-8zm-8 144h-176v-128h104a8 8 0 0 0 5.657-2.343l34.343-34.344v28.687a8 8 0 0 0 8 8h24z" fill="url(#b)"/><path d="m496 224h-48a8 8 0 0 0 -8 8v16h-72v-16a8 8 0 0 0 -8-8h-48a8 8 0 0 0 -8 8v16h-96v-16a8 8 0 0 0 -8-8h-48a8 8 0 0 0 -8 8v16h-72v-16a8 8 0 0 0 -8-8h-48a8 8 0 0 0 -8 8v48a8 8 0 0 0 8 8h48a8 8 0 0 0 8-8v-16h72v16a8 8 0 0 0 8 8h48a8 8 0 0 0 8-8v-16h96v16a8 8 0 0 0 8 8h48a8 8 0 0 0 8-8v-16h72v16a8 8 0 0 0 8 8h48a8 8 0 0 0 8-8v-48a8 8 0 0 0 -8-8zm-440 48h-32v-32h32zm136 0h-32v-32h32zm160 0h-32v-32h32zm136 0h-32v-32h32z" fill="url(#c)"/></g></svg>