<svg xmlns="http://www.w3.org/2000/svg" viewBox="0 0 274.16 87.5"><defs><style>.cls-1{fill:#fff;}</style></defs><g id="Layer_2" data-name="Layer 2"><g id="Capa_2" data-name="Capa 2"><path class="cls-1" d="M31.26,15H0V55H9.84V24.86H30c2.66.05,3.82,1.18,3.88,3.75V55h9.92l0-27.45C43.74,19.38,39.43,15.07,31.26,15Z"/><path class="cls-1" d="M72.32,30.27H91.46V41.34c-.06,2.65-1.14,3.79-3.61,3.81H67.94c-2.91,0-4.22-1.4-4.26-4.47V14.14c0-2.93,1.41-4.26,4.5-4.3h33.15V0h-35C58.14,0,53.83,4.31,53.83,12.41l0,30.2c0,8,4.36,12.3,12.7,12.38h22.1c8.33,0,12.74-4.37,12.74-12.62V20.6H72.32Z"/><polygon class="cls-1" points="114.01 54.99 157.46 54.99 157.46 45.15 123.78 45.15 123.78 9.84 157.46 9.84 157.46 0.04 114.01 0.04 114.01 54.99"/><rect class="cls-1" x="132.57" y="20.53" width="24.32" height="9.73"/><polygon class="cls-1" points="207.94 38.02 179.49 0.46 179.15 0 170.28 0 170.28 54.95 180.34 54.95 180.34 17.4 208.45 54.95 217.75 54.95 217.75 0 207.94 0 207.94 38.02"/><path class="cls-1" d="M274.16,55l0-27.45c0-8.12-4.31-12.43-12.48-12.49H230.38V55h9.85V24.86h20.13c2.67.05,3.83,1.18,3.89,3.75V55Z"/><path class="cls-1" d="M7.67,76.25v1.18h-3v9.95H3.18V77.43H.13V76.25Z"/><path class="cls-1" d="M23.23,84.91H18.37l-.89,2.47H16l4-11.06h1.68l4,11.06H24.12Zm-.42-1.18-2-5.63-2,5.63Z"/><path class="cls-1" d="M36.05,76.25V87.38H34.6V76.25Z"/><path class="cls-1" d="M47.17,86.2h3.9v1.18H45.72V76.25h1.45Z"/><path class="cls-1" d="M62,86.77a5.39,5.39,0,0,1-2-2,6.17,6.17,0,0,1,0-5.86,5.32,5.32,0,0,1,2-2,5.87,5.87,0,0,1,5.67,0,5.27,5.27,0,0,1,2,2,6.21,6.21,0,0,1,0,5.88,5.34,5.34,0,0,1-2,2,5.87,5.87,0,0,1-5.67,0ZM67,85.69a3.86,3.86,0,0,0,1.47-1.55,5.41,5.41,0,0,0,0-4.67A3.81,3.81,0,0,0,67,77.93a4.39,4.39,0,0,0-4.22,0,3.81,3.81,0,0,0-1.46,1.54,5.32,5.32,0,0,0,0,4.67,3.86,3.86,0,0,0,1.47,1.55,4.35,4.35,0,0,0,4.2,0Z"/><path class="cls-1" d="M85.4,87.38l-2.65-4.55H81v4.55H79.54V76.25h3.6a4.73,4.73,0,0,1,2.13.43,3,3,0,0,1,1.3,1.17,3.23,3.23,0,0,1-2.22,4.87l2.8,4.66ZM81,81.67h2.14a2.42,2.42,0,0,0,1.77-.59,2.1,2.1,0,0,0,.59-1.55A2,2,0,0,0,84.92,78a2.56,2.56,0,0,0-1.78-.54H81Z"/><path class="cls-1" d="M97.89,77.43v3.72H102v1.2H97.89v3.84h4.54v1.19h-6V76.24h6v1.19Z"/><path class="cls-1" d="M118.44,76.93a4.8,4.8,0,0,1,2,1.94,6,6,0,0,1,.71,3,5.92,5.92,0,0,1-.71,3,4.7,4.7,0,0,1-2,1.92,7,7,0,0,1-3.15.66h-3.47V76.25h3.47A6.9,6.9,0,0,1,118.44,76.93Zm.14,8.11a4.37,4.37,0,0,0,1.13-3.2,4.45,4.45,0,0,0-1.14-3.24,4.38,4.38,0,0,0-3.28-1.17h-2v8.76h2A4.46,4.46,0,0,0,118.58,85Z"/><path class="cls-1" d="M141.94,78.88a5.32,5.32,0,0,1,2-2,5.49,5.49,0,0,1,2.82-.73,5.65,5.65,0,0,1,3.17.88,4.93,4.93,0,0,1,2,2.49h-1.74a3.49,3.49,0,0,0-1.33-1.55,3.88,3.88,0,0,0-2.08-.54,4.1,4.1,0,0,0-2.1.54,3.79,3.79,0,0,0-1.45,1.54,5.39,5.39,0,0,0,0,4.66,3.79,3.79,0,0,0,1.45,1.54,4,4,0,0,0,2.1.55,3.88,3.88,0,0,0,2.08-.54,3.41,3.41,0,0,0,1.33-1.54h1.74a4.92,4.92,0,0,1-2,2.47,5.73,5.73,0,0,1-3.17.87,5.49,5.49,0,0,1-2.82-.73,5.27,5.27,0,0,1-2-2,5.78,5.78,0,0,1-.73-2.92A5.85,5.85,0,0,1,141.94,78.88Z"/><path class="cls-1" d="M163.49,86.77a5.32,5.32,0,0,1-2-2,6.17,6.17,0,0,1,0-5.86,5.25,5.25,0,0,1,2-2,5.64,5.64,0,0,1,2.82-.73,5.7,5.7,0,0,1,2.85.73,5.27,5.27,0,0,1,2,2,6.29,6.29,0,0,1,0,5.88,5.34,5.34,0,0,1-2,2,5.7,5.7,0,0,1-2.85.73A5.64,5.64,0,0,1,163.49,86.77Zm4.93-1.08a3.77,3.77,0,0,0,1.46-1.55,5.32,5.32,0,0,0,0-4.67,3.74,3.74,0,0,0-1.46-1.54,4.37,4.37,0,0,0-4.21,0,3.74,3.74,0,0,0-1.46,1.54,5.32,5.32,0,0,0,0,4.67,3.77,3.77,0,0,0,1.46,1.55,4.37,4.37,0,0,0,4.21,0Z"/><path class="cls-1" d="M189.76,87.38h-1.45l-5.85-8.86v8.86H181V76.24h1.45l5.85,8.84V76.24h1.45Z"/><path class="cls-1" d="M199.62,78.88a5.23,5.23,0,0,1,2-2,5.54,5.54,0,0,1,2.82-.73,5.71,5.71,0,0,1,3.18.88,5,5,0,0,1,2,2.49h-1.74a3.51,3.51,0,0,0-1.34-1.55,3.86,3.86,0,0,0-2.08-.54,4,4,0,0,0-2.09.54,3.74,3.74,0,0,0-1.46,1.54,5.48,5.48,0,0,0,0,4.66,3.74,3.74,0,0,0,1.46,1.54,4,4,0,0,0,2.09.55,3.86,3.86,0,0,0,2.08-.54,3.43,3.43,0,0,0,1.34-1.54h1.74a5,5,0,0,1-2,2.47,5.79,5.79,0,0,1-3.18.87,5.54,5.54,0,0,1-2.82-.73,5.18,5.18,0,0,1-2-2,5.79,5.79,0,0,1-.74-2.92A5.85,5.85,0,0,1,199.62,78.88Z"/><path class="cls-1" d="M220.39,77.43v3.72h4.06v1.2h-4.06v3.84h4.54v1.19h-6V76.24h6v1.19Z"/><path class="cls-1" d="M240.81,81.82a4,4,0,0,1-2.9.92h-2.14v4.64h-1.45V76.25h3.59a4.05,4.05,0,0,1,2.87.91,3.3,3.3,0,0,1,0,4.66ZM239.7,81a1.91,1.91,0,0,0,.58-1.5c0-1.37-.79-2.06-2.37-2.06h-2.14v4.09h2.14A2.59,2.59,0,0,0,239.7,81Z"/><path class="cls-1" d="M257.61,76.25v1.18h-3v9.95h-1.45V77.43h-3.05V76.25Z"/><path class="cls-1" d="M268.14,87.1A3.31,3.31,0,0,1,266.77,86a2.8,2.8,0,0,1-.51-1.61h1.55a2.08,2.08,0,0,0,.65,1.32,2.31,2.31,0,0,0,1.65.54,2.46,2.46,0,0,0,1.64-.52,1.69,1.69,0,0,0,.6-1.34,1.56,1.56,0,0,0-.35-1,2.38,2.38,0,0,0-.88-.6,13.66,13.66,0,0,0-1.42-.45,12.39,12.39,0,0,1-1.77-.57,2.91,2.91,0,0,1-1.13-.91,2.61,2.61,0,0,1-.47-1.65,2.84,2.84,0,0,1,.46-1.61,3,3,0,0,1,1.3-1.09,4.68,4.68,0,0,1,1.93-.38,4,4,0,0,1,2.56.78A2.92,2.92,0,0,1,273.71,79h-1.6a1.78,1.78,0,0,0-.67-1.13,2.43,2.43,0,0,0-1.57-.49,2.28,2.28,0,0,0-1.48.47,1.61,1.61,0,0,0-.58,1.32,1.41,1.41,0,0,0,.35,1,2.21,2.21,0,0,0,.84.59c.34.13.81.28,1.42.45a12.82,12.82,0,0,1,1.77.6,3,3,0,0,1,1.15.91,2.65,2.65,0,0,1,.48,1.67,3,3,0,0,1-.43,1.53,3.24,3.24,0,0,1-1.28,1.17,4.22,4.22,0,0,1-2,.45A4.78,4.78,0,0,1,268.14,87.1Z"/></g></g></svg>