<svg height="512" viewBox="0 0 512 512" width="512" xmlns="http://www.w3.org/2000/svg" xmlns:xlink="http://www.w3.org/1999/xlink"><linearGradient id="a" gradientUnits="userSpaceOnUse" x1="98.5" x2="598.6" y1="533.5" y2="33.4" data-name="New Gradient Swatch 1"><stop offset="0" stop-color="#003f8a"/><stop offset=".518" stop-color="#00d7df"/><stop offset="1" stop-color="#006df0"/></linearGradient><linearGradient id="b" x1="17.297" x2="517.397" xlink:href="#a" y1="452.297" y2="-47.803"/><g><path d="m328 320h-144a8 8 0 0 0 -8 8v96a8 8 0 0 0 8 8h144a8 8 0 0 0 8-8v-96a8 8 0 0 0 -8-8zm-8 96h-128v-80h128z" fill="url(#a)"/><path d="m444.8 66.13a59.526 59.526 0 0 0 -10.6.95 72.039 72.039 0 0 0 -131.99-.9 33.682 33.682 0 0 0 -30.98 26.11 46.4 46.4 0 0 0 7.17 92.24h129.6v191.47h-48v-52a28.031 28.031 0 0 0 -28-28h-152a28.031 28.031 0 0 0 -28 28v52h-48v-176.37a88 88 0 1 0 -16 0v184.37a8 8 0 0 0 8 8h56v48h-16a8 8 0 0 0 -8 8v12a28.031 28.031 0 0 0 28 28h200a28.031 28.031 0 0 0 28-28v-12a8 8 0 0 0 -8-8h-16v-48h56a8 8 0 0 0 8-8v-199.47s24.15-.07 25.72-.21a59.2 59.2 0 0 0 -4.92-118.19zm-284.35 77.87h-27a191.379 191.379 0 0 0 2.4-24h31.69a71.159 71.159 0 0 1 -7.09 24zm0-64a71.159 71.159 0 0 1 7.09 24h-31.69a191.379 191.379 0 0 0 -2.4-24zm-10.84-16h-19.69a113.848 113.848 0 0 0 -3.87-11.54q-1.56-3.9-3.31-7.29a72.352 72.352 0 0 1 26.87 18.83zm-23.56 107.54a113.848 113.848 0 0 0 3.87-11.54h19.69a72.352 72.352 0 0 1 -26.87 18.83q1.76-3.39 3.31-7.29zm-30.05-131.54c5.45 0 12.27 8.71 17.24 24h-34.48c4.97-15.29 11.79-24 17.24-24zm-21.23 40h42.46a171.17 171.17 0 0 1 2.61 24h-47.68a171.17 171.17 0 0 1 2.61-24zm-43.22 0h27a191.379 191.379 0 0 0 -2.4 24h-31.69a71.159 71.159 0 0 1 7.09-24zm0 64a71.159 71.159 0 0 1 -7.09-24h31.69a191.379 191.379 0 0 0 2.4 24zm10.84 16h19.69a113.848 113.848 0 0 0 3.87 11.54q1.56 3.9 3.31 7.29a72.352 72.352 0 0 1 -26.87-18.83zm23.56-107.54a113.848 113.848 0 0 0 -3.87 11.54h-19.69a72.352 72.352 0 0 1 26.87-18.83q-1.755 3.39-3.31 7.29zm6.21 67.54h47.68a171.17 171.17 0 0 1 -2.61 24h-42.46a171.17 171.17 0 0 1 -2.61-24zm23.84 64c-5.45 0-12.27-8.71-17.24-24h34.48c-4.97 15.29-11.79 24-17.24 24zm72 140a12.01 12.01 0 0 1 12-12h152a12.01 12.01 0 0 1 12 12v116h-176zm200 132v4a12.01 12.01 0 0 1 -12 12h-200a12.01 12.01 0 0 1 -12-12v-4zm80.37-287.62c-1.15.1-168.84.15-169.97.15a30.4 30.4 0 1 1 0-60.8 8 8 0 0 0 8-8 17.626 17.626 0 0 1 17.6-17.6 18.64 18.64 0 0 1 2.47.17 7.989 7.989 0 0 0 8.64-5.29 56.027 56.027 0 0 1 106.41 1.92 7.986 7.986 0 0 0 10.08 5.25 43.206 43.206 0 1 1 16.77 84.2z" fill="url(#b)"/></g></svg>