<svg height="512" viewBox="0 0 512 512" width="512" xmlns="http://www.w3.org/2000/svg" xmlns:xlink="http://www.w3.org/1999/xlink"><linearGradient id="a" gradientUnits="userSpaceOnUse" x1="-9.078" x2="463.602" y1="475.079" y2="2.399" data-name="New Gradient Swatch 1"><stop offset="0" stop-color="#003f8a"/><stop offset=".518" stop-color="#00d7df"/><stop offset="1" stop-color="#006df0"/></linearGradient><linearGradient id="b" x1="-13.884" x2="458.796" xlink:href="#a" y1="470.273" y2="-2.407"/><linearGradient id="c" x1="-8.11" x2="464.57" xlink:href="#a" y1="476.109" y2="3.429"/><g><path d="m197.574 217.515a8 8 0 0 0 -11.313 0l-22.628 22.627a8 8 0 0 0 0 11.314l50.912 50.912a8 8 0 0 0 11.314 0l90.51-90.51a8 8 0 0 0 0-11.314l-22.629-22.628a8 8 0 0 0 -11.314 0l-62.226 62.227zm90.509-22.628 11.317 11.313-79.2 79.2-39.6-39.6 11.314-11.314 22.627 22.628a8 8 0 0 0 11.314 0z" fill="url(#a)"/><path d="m400 8a64.079 64.079 0 0 0 -57.84 36.64l-99.43-36.16a8 8 0 0 0 -5.46 0l-176 64a8 8 0 0 0 -5.27 7.52v206.52a168.512 168.512 0 0 0 69.18 135.87l110.11 80.08a8.015 8.015 0 0 0 9.42 0l110.11-80.08a168.512 168.512 0 0 0 69.18-135.87v-155.21a63.988 63.988 0 0 0 -24-123.31zm-24 123.31v155.21a120.334 120.334 0 0 1 -49.42 97.05l-86.58 62.97-86.58-62.97a120.334 120.334 0 0 1 -49.42-97.05v-178.51l136-49.45 100.31 36.47a64.288 64.288 0 0 0 35.69 36.28zm32 155.21a152.473 152.473 0 0 1 -62.59 122.93l-105.41 76.66-105.41-76.66a152.473 152.473 0 0 1 -62.59-122.93v-200.92l168-61.09 97.17 35.34a63.931 63.931 0 0 0 -1.17 12.15c0 1.52.07 3.02.18 4.51l-93.45-33.98a8 8 0 0 0 -5.46 0l-144 52.36a8 8 0 0 0 -5.27 7.52v184.11a136.419 136.419 0 0 0 56 109.99l91.29 66.39a8.015 8.015 0 0 0 9.42 0l91.29-66.39a136.419 136.419 0 0 0 56-109.99v-151.04a61.8 61.8 0 0 0 16 0zm-8-166.52a48 48 0 1 1 48-48 48.051 48.051 0 0 1 -48 48z" fill="url(#b)"/><path d="m404.206 41.194a8 8 0 0 0 -7.784-.349l-16 8a8 8 0 0 0 7.156 14.31l4.422-2.211v35.056a8 8 0 0 0 16 0v-48a8 8 0 0 0 -3.794-6.806z" fill="url(#c)"/></g></svg>